<?xml version="1.0" encoding="UTF-8" standalone="no" ?>
<!DOCTYPE svg PUBLIC "-//W3C//DTD SVG 1.1//EN" "http://www.w3.org/Graphics/SVG/1.1/DTD/svg11.dtd">
<svg xmlns="http://www.w3.org/2000/svg" xmlns:xlink="http://www.w3.org/1999/xlink" version="1.1" width="1080" height="1080" viewBox="0 0 1080 1080" xml:space="preserve">
<desc>Created with Fabric.js 5.2.4</desc>
<defs>
</defs>
<g transform="matrix(1 0 0 1 540 540)" id="dfe7a97a-78aa-48dd-94b4-500676b44a5b"  >
<rect style="stroke: none; stroke-width: 1; stroke-dasharray: none; stroke-linecap: butt; stroke-dashoffset: 0; stroke-linejoin: miter; stroke-miterlimit: 4; fill: rgb(255,255,255); fill-rule: nonzero; opacity: 1; visibility: hidden;" vector-effect="non-scaling-stroke"  x="-540" y="-540" rx="0" ry="0" width="1080" height="1080" />
</g>
<g transform="matrix(1 0 0 1 540 540)" id="97a645ea-d7c2-4ffa-9dda-0476a392c7a9"  >
</g>
<g transform="matrix(NaN NaN NaN NaN 0 0)"  >
<g style=""   >
</g>
</g>
<g transform="matrix(NaN NaN NaN NaN 0 0)"  >
<g style=""   >
</g>
</g>
<g transform="matrix(12.41 0 0 12.41 178.22 540)"  >
<path style="stroke: none; stroke-width: 1; stroke-dasharray: none; stroke-linecap: butt; stroke-dashoffset: 0; stroke-linejoin: miter; stroke-miterlimit: 4; fill: rgb(255,255,255); fill-rule: nonzero; opacity: 1;" vector-effect="non-scaling-stroke"  transform=" translate(-14.36, -15)" d="M 1.805 1.294 L 18.405 0.06800000000000006 C 20.444000000000003 -0.10699999999999993 20.968 0.011000000000000058 22.25 0.9430000000000001 L 27.549 4.676 C 28.423 5.3180000000000005 28.714 5.493 28.714 6.192 L 28.714 26.665 C 28.714 27.948 28.247999999999998 28.707 26.616999999999997 28.823 L 7.34 29.99 C 6.116 30.048 5.5329999999999995 29.872999999999998 4.8919999999999995 29.055999999999997 L 0.99 23.982 C 0.29000000000000004 23.048 0 22.349 0 21.532 L 0 3.334 C 0 2.285 0.466 1.4100000000000001 1.805 1.294 z" stroke-linecap="round" />
</g>
<g transform="matrix(12.41 0 0 12.41 194.77 540)"  >
<path style="stroke: rgb(0,0,0); stroke-width: 9; stroke-dasharray: none; stroke-linecap: butt; stroke-dashoffset: 0; stroke-linejoin: miter; stroke-miterlimit: 4; fill: rgb(255,255,255); fill-rule: evenodd; opacity: 1;" vector-effect="non-scaling-stroke"  transform=" translate(-14.36, -15)" d="M 18.405 0.068 L 1.8049999999999997 1.294 C 0.466 1.41 0 2.285 0 3.334 L 0 21.532 C 0 22.349 0.29 23.048000000000002 0.99 23.982 L 4.892 29.055999999999997 C 5.533 29.872999999999998 6.1160000000000005 30.048 7.34 29.99 L 26.617 28.822999999999997 C 28.247 28.706999999999997 28.714000000000002 27.947999999999997 28.714000000000002 26.664999999999996 L 28.714000000000002 6.192 C 28.714000000000002 5.529 28.452 5.338 27.681 4.772 C 27.636635971974837 4.740042546440474 27.59230261823279 4.708042531709359 27.548 4.675999999999982 L 22.25 0.943 C 20.968 0.010999999999999899 20.444 -0.1070000000000001 18.405 0.06799999999999995 z M 7.776 5.857 C 6.202 5.963 5.845 5.987 4.951 5.26 L 2.678 3.452 C 2.447 3.218 2.5629999999999997 2.926 3.145 2.868 L 19.103 1.702 C 20.443 1.585 21.141000000000002 2.052 21.665000000000003 2.46 L 24.402 4.443 C 24.519000000000002 4.502 24.810000000000002 4.851 24.46 4.851 L 7.98 5.843 L 7.776000000000001 5.857 z M 5.941 26.49 L 5.941 9.11 C 5.941 8.350999999999999 6.1739999999999995 8.001 6.872 7.941999999999999 L 25.8 6.834 C 26.442 6.776 26.732 7.183999999999999 26.732 7.942 L 26.732 25.206 C 26.732 25.965 26.615 26.607 25.567 26.665 L 7.454000000000001 27.715 C 6.406000000000001 27.773 5.941000000000001 27.424 5.941000000000001 26.49 z M 23.820999999999998 10.041999999999998 C 23.936999999999998 10.566999999999998 23.820999999999998 11.091999999999999 23.296 11.151999999999997 L 22.423 11.324999999999998 L 22.423 24.156999999999996 C 21.665 24.564999999999998 20.967 24.797999999999995 20.383999999999997 24.797999999999995 C 19.451999999999998 24.797999999999995 19.218999999999998 24.505999999999993 18.520999999999997 23.631999999999994 L 12.811999999999998 14.649999999999995 L 12.811999999999998 23.339999999999996 L 14.617999999999999 23.748999999999995 C 14.617999999999999 23.748999999999995 14.617999999999999 24.798999999999996 13.160999999999998 24.798999999999996 L 9.143999999999998 25.031999999999996 C 9.026999999999997 24.797999999999995 9.143999999999998 24.214999999999996 9.550999999999998 24.098999999999997 L 10.599999999999998 23.807999999999996 L 10.599999999999998 12.317999999999996 L 9.144 12.2 C 9.027 11.674999999999999 9.318 10.917 10.134 10.857999999999999 L 14.443999999999999 10.568 L 20.384 19.666 L 20.384 11.617 L 18.87 11.443000000000001 C 18.753 10.8 19.219 10.333000000000002 19.801000000000002 10.276000000000002 L 23.821 10.042000000000002 z" stroke-linecap="round" />
</g>
<g transform="matrix(12.41 0 0 12.41 733.63 540)"  >
<path style="stroke: none; stroke-width: 1; stroke-dasharray: none; stroke-linecap: butt; stroke-dashoffset: 0; stroke-linejoin: miter; stroke-miterlimit: 4; fill: rgb(255,255,255); fill-rule: nonzero; opacity: 1;" vector-effect="non-scaling-stroke"  transform=" translate(-62.94, -15)" d="M 41.434 21.251 L 41.434 13.341000000000001 L 41.571 13.341000000000001 L 47.275 21.251 L 49.071 21.251 L 49.071 9.627 L 47.074 9.627 L 47.074 17.529 L 46.937 17.529 L 41.233 9.626999999999999 L 39.43 9.626999999999999 L 39.43 21.25 L 41.435 21.25 z M 54.715 21.429 C 57.35 21.429 58.953 19.705 58.953 16.845 C 58.953 13.992999999999999 57.342000000000006 12.261 54.715 12.261 C 52.097 12.261 50.478 14.001 50.478 16.845 C 50.478 19.705 52.073 21.429 54.715 21.429 z M 54.715 19.753 C 53.322 19.753 52.525000000000006 18.69 52.525000000000006 16.845 C 52.525000000000006 15.008 53.322 13.937 54.715 13.937 C 56.101000000000006 13.937 56.898 15.008 56.898 16.845 C 56.898 18.689999999999998 56.109 19.753 54.715 19.753 z M 60.778 10.28 L 60.778 12.495 L 59.385 12.495 L 59.385 14.09 L 60.778 14.09 L 60.778 18.899 C 60.778 20.607 61.583999999999996 21.292 63.606 21.292 C 63.992000000000004 21.292 64.363 21.252000000000002 64.653 21.195 L 64.653 19.632 C 64.411 19.656000000000002 64.25800000000001 19.672 63.976000000000006 19.672 C 63.139 19.672 62.76800000000001 19.286 62.76800000000001 18.416 L 62.76800000000001 14.09 L 64.653 14.09 L 64.653 12.495 L 62.76800000000001 12.495 L 62.76800000000001 10.279 L 60.778000000000006 10.279 z M 65.85 21.251 L 67.83999999999999 21.251 L 67.83999999999999 12.438 L 65.85 12.438 L 65.85 21.251 z M 66.841 10.981000000000002 C 67.50099999999999 10.981000000000002 68.03299999999999 10.448000000000002 68.03299999999999 9.780000000000001 C 68.03299999999999 9.111 67.50199999999998 8.571000000000002 66.841 8.571000000000002 C 66.189 8.571000000000002 65.649 9.111 65.649 9.780000000000001 C 65.649 10.448 66.18900000000001 10.98 66.841 10.98 z M 73.299 21.429 C 75.933 21.429 77.536 19.705 77.536 16.845 C 77.536 13.992999999999999 75.925 12.261 73.299 12.261 C 70.68 12.261 69.061 14.001 69.061 16.845 C 69.061 19.705 70.656 21.429 73.299 21.429 z M 73.299 19.753 C 71.905 19.753 71.107 18.69 71.107 16.845 C 71.107 15.008 71.905 13.937 73.299 13.937 C 74.68400000000001 13.937 75.482 15.008 75.482 16.845 C 75.482 18.689999999999998 74.692 19.753 73.299 19.753 z M 78.725 21.251 L 80.723 21.251 L 80.723 16.12 C 80.723 14.823 81.473 14.001000000000001 82.664 14.001000000000001 C 83.881 14.001000000000001 84.444 14.678 84.444 16.023 L 84.444 21.250999999999998 L 86.443 21.250999999999998 L 86.443 15.547999999999998 C 86.443 13.444999999999999 85.371 12.261 83.40599999999999 12.261 C 82.09199999999998 12.261 81.20599999999999 12.864999999999998 80.78699999999999 13.847999999999999 L 80.64999999999999 13.847999999999999 L 80.64999999999999 12.437999999999999 L 78.725 12.437999999999999 L 78.725 21.250999999999998 z" stroke-linecap="round" />
</g>
</svg>