<?xml version="1.0" encoding="UTF-8" standalone="no" ?>
<!DOCTYPE svg PUBLIC "-//W3C//DTD SVG 1.1//EN" "http://www.w3.org/Graphics/SVG/1.1/DTD/svg11.dtd">
<svg xmlns="http://www.w3.org/2000/svg" xmlns:xlink="http://www.w3.org/1999/xlink" version="1.1" width="1080" height="1080" viewBox="0 0 1080 1080" xml:space="preserve">
<desc>Created with Fabric.js 5.2.4</desc>
<defs>
</defs>
<rect x="0" y="0" width="100%" height="100%" fill="transparent"></rect>
<g transform="matrix(1 0 0 1 540 540)" id="63f816b8-f774-46fa-b25e-596733b626d8"  >
<rect style="stroke: none; stroke-width: 1; stroke-dasharray: none; stroke-linecap: butt; stroke-dashoffset: 0; stroke-linejoin: miter; stroke-miterlimit: 4; fill: rgb(255,255,255); fill-rule: nonzero; opacity: 1; visibility: hidden;" vector-effect="non-scaling-stroke"  x="-540" y="-540" rx="0" ry="0" width="1080" height="1080" />
</g>
<g transform="matrix(1 0 0 1 540 540)" id="5c9c7af1-937c-4480-a0ba-656cd140d7f6"  >
</g>
<g transform="matrix(1.05 0 0 1.05 540 540)"  >
<g style=""   >
		<g transform="matrix(1 0 0 1 0 0)" id="container"  >
</g>
		<g transform="matrix(1 0 0 1 0 0)" id="icon_container"  >
</g>
		<g transform="matrix(1.25 0 0 1.25 -203.08 0)" id="path530225"  >
<path style="stroke: rgb(255,255,255); stroke-width: 0; stroke-dasharray: none; stroke-linecap: butt; stroke-dashoffset: 0; stroke-linejoin: miter; stroke-miterlimit: 2; fill: rgb(255,255,255); fill-rule: nonzero; opacity: 1;" vector-effect="non-scaling-stroke"  transform=" translate(-366.4, 25.2)" d="M 364.56481 -47.088 L 364.56481 0 L 368.23681000000005 0 L 368.23681000000005 -47.088 L 386.38081000000005 -47.088 L 386.38081000000005 -50.4 L 346.4208100000001 -50.4 L 346.4208100000001 -47.088 z" stroke-linecap="round" />
</g>
		<g transform="matrix(1.25 0 0 1.25 -136.08 0)" id="path530227"  >
<path style="stroke: rgb(255,255,255); stroke-width: 0; stroke-dasharray: none; stroke-linecap: butt; stroke-dashoffset: 0; stroke-linejoin: miter; stroke-miterlimit: 2; fill: rgb(255,255,255); fill-rule: nonzero; opacity: 1;" vector-effect="non-scaling-stroke"  transform=" translate(-415, 25.2)" d="M 421.98481 -17.64 C 425.72881 -18.72 428.68081 -20.592 430.69680999999997 -23.328 C 432.71281 -26.064 433.79281 -29.375999999999998 433.79281 -33.408 C 433.79281 -38.664 431.99280999999996 -42.84 428.39281 -45.864000000000004 C 424.79281 -48.888000000000005 419.82481 -50.400000000000006 413.48881 -50.400000000000006 L 395.41681 -50.400000000000006 L 395.41681 -47.08800000000001 L 413.48881 -47.08800000000001 C 418.81681 -47.08800000000001 422.92081 -45.86400000000001 425.80081 -43.48800000000001 C 428.60881 -41.11200000000001 430.04881 -37.72800000000001 430.04881 -33.40800000000001 C 430.04881 -29.01600000000001 428.60881 -25.63200000000001 425.80081 -23.256000000000007 C 422.92081 -20.880000000000006 418.81681000000003 -19.72800000000001 413.48881 -19.72800000000001 L 395.41681 -19.72800000000001 L 395.41681 0 L 399.08881 0 L 399.08881 -16.488 L 413.48881 -16.488 C 414.92881 -16.488 416.58481 -16.56 418.38481 -16.848 L 430.40881 0 L 434.58481 0 z" stroke-linecap="round" />
</g>
		<g transform="matrix(1.25 0 0 1.25 -87.15 0)" id="path530229"  >
<path style="stroke: rgb(255,255,255); stroke-width: 0; stroke-dasharray: none; stroke-linecap: butt; stroke-dashoffset: 0; stroke-linejoin: miter; stroke-miterlimit: 2; fill: rgb(255,255,255); fill-rule: nonzero; opacity: 1;" vector-effect="non-scaling-stroke"  transform=" translate(-449.14, 25.2)" d="M 447.30744 -50.4 L 447.30744 0 L 450.97944 0 L 450.97944 -50.4 z" stroke-linecap="round" />
</g>
		<g transform="matrix(1.25 0 0 1.25 -35.15 0)" id="path530231"  >
<path style="stroke: rgb(255,255,255); stroke-width: 0; stroke-dasharray: none; stroke-linecap: butt; stroke-dashoffset: 0; stroke-linejoin: miter; stroke-miterlimit: 2; fill: rgb(255,255,255); fill-rule: nonzero; opacity: 1;" vector-effect="non-scaling-stroke"  transform=" translate(-485.75, 25.2)" d="M 476.46181 -2.952 C 480.42181 -0.7199999999999998 484.88581 0.3599999999999999 489.85381 0.3599999999999999 C 493.45381000000003 0.3599999999999999 496.76581 -0.21600000000000008 499.86181 -1.4400000000000002 C 502.95781 -2.592 505.62181 -4.392 507.78181 -6.696000000000001 L 505.47781000000003 -9.072000000000001 C 501.37381000000005 -5.040000000000001 496.18981 -3.024000000000001 489.99781 -3.024000000000001 C 485.74981 -3.024000000000001 481.93381 -3.960000000000001 478.47781000000003 -5.904000000000001 C 475.02181 -7.776000000000001 472.28581 -10.440000000000001 470.34181 -13.824000000000002 C 468.32581 -17.208000000000002 467.38981 -21.024 467.38981 -25.200000000000003 C 467.38981 -29.376000000000005 468.32581 -33.120000000000005 470.34181 -36.504000000000005 C 472.28581 -39.888000000000005 475.02181 -42.55200000000001 478.47781000000003 -44.496 C 481.93381000000005 -46.368 485.74981 -47.376000000000005 489.99781 -47.376000000000005 C 496.26181 -47.376000000000005 501.44581 -45.36000000000001 505.47781000000003 -41.400000000000006 L 507.78181 -43.776 C 505.62181 -46.080000000000005 502.95781 -47.80800000000001 499.93381 -48.96 C 496.83781 -50.112 493.45381 -50.76 489.85381 -50.76 C 484.88581 -50.76 480.42181 -49.608 476.46181 -47.448 C 472.50181000000003 -45.216 469.40581000000003 -42.192 467.10181 -38.304 C 464.79781 -34.416000000000004 463.71781 -30.024 463.71781 -25.200000000000003 C 463.71781 -20.304000000000002 464.79780999999997 -15.984000000000004 467.10181 -12.096000000000004 C 469.40581 -8.208000000000004 472.50181 -5.112000000000004 476.46181 -2.9520000000000035 z" stroke-linecap="round" />
</g>
		<g transform="matrix(1.25 0 0 1.25 39.43 0)" id="path530233"  >
<path style="stroke: rgb(255,255,255); stroke-width: 0; stroke-dasharray: none; stroke-linecap: butt; stroke-dashoffset: 0; stroke-linejoin: miter; stroke-miterlimit: 2; fill: rgb(255,255,255); fill-rule: nonzero; opacity: 1;" vector-effect="non-scaling-stroke"  transform=" translate(-540.41, 25.2)" d="M 527.01819 -2.952 C 530.97819 -0.7199999999999998 535.44219 0.3599999999999999 540.4101900000001 0.3599999999999999 C 545.30619 0.3599999999999999 549.7701900000001 -0.7200000000000002 553.8021900000001 -2.952 C 557.7621900000001 -5.112 560.8581900000001 -8.208 563.1621900000001 -12.096 C 565.4661900000001 -15.984 566.6181900000001 -20.304000000000002 566.6181900000001 -25.2 C 566.6181900000001 -30.024 565.4661900000001 -34.416 563.1621900000001 -38.304 C 560.8581900000001 -42.192 557.7621900000001 -45.216 553.8021900000001 -47.448 C 549.7701900000001 -49.608000000000004 545.3061900000001 -50.76 540.4101900000001 -50.76 C 535.4421900000001 -50.76 530.97819 -49.608 527.01819 -47.376 C 522.98619 -45.144 519.89019 -42.12 517.58619 -38.232 C 515.28219 -34.344 514.20219 -29.951999999999998 514.20219 -25.2 C 514.20219 -20.375999999999998 515.28219 -16.055999999999997 517.58619 -12.168 C 519.89019 -8.28 522.98619 -5.183999999999999 527.01819 -2.952 z M 551.85819 -5.904 C 548.40219 -3.96 544.58619 -3.024 540.4101900000001 -3.024 C 536.16219 -3.024 532.3461900000001 -3.96 528.8901900000001 -5.904 C 525.4341900000001 -7.776 522.7701900000001 -10.44 520.8261900000001 -13.824 C 518.8101900000001 -17.208 517.8741900000001 -21.024 517.8741900000001 -25.2 C 517.8741900000001 -29.375999999999998 518.8101900000001 -33.12 520.8261900000001 -36.504 C 522.7701900000001 -39.888 525.4341900000001 -42.552 528.8901900000001 -44.495999999999995 C 532.3461900000001 -46.367999999999995 536.1621900000001 -47.376 540.4101900000001 -47.376 C 544.5861900000001 -47.376 548.40219 -46.367999999999995 551.85819 -44.495999999999995 C 555.24219 -42.55199999999999 557.90619 -39.888 559.92219 -36.504 C 561.86619 -33.12 562.87419 -29.375999999999998 562.87419 -25.199999999999996 C 562.87419 -21.023999999999994 561.86619 -17.207999999999995 559.92219 -13.823999999999996 C 557.90619 -10.439999999999996 555.24219 -7.775999999999996 551.85819 -5.903999999999996 z" stroke-linecap="round" />
</g>
		<g transform="matrix(1.25 0 0 1.25 107.84 0)" id="path530235"  >
<path style="stroke: rgb(255,255,255); stroke-width: 0; stroke-dasharray: none; stroke-linecap: butt; stroke-dashoffset: 0; stroke-linejoin: miter; stroke-miterlimit: 2; fill: rgb(255,255,255); fill-rule: nonzero; opacity: 1;" vector-effect="non-scaling-stroke"  transform=" translate(-590.14, 25.2)" d="M 588.29919 -47.088 L 588.29919 0 L 591.97119 0 L 591.97119 -47.088 L 610.11519 -47.088 L 610.11519 -50.4 L 570.15519 -50.4 L 570.15519 -47.088 z" stroke-linecap="round" />
</g>
		<g transform="matrix(1.25 0 0 1.25 152.65 0)" id="path530237"  >
<path style="stroke: rgb(255,255,255); stroke-width: 0; stroke-dasharray: none; stroke-linecap: butt; stroke-dashoffset: 0; stroke-linejoin: miter; stroke-miterlimit: 2; fill: rgb(255,255,255); fill-rule: nonzero; opacity: 1;" vector-effect="non-scaling-stroke"  transform=" translate(-620.99, 25.2)" d="M 619.15119 -50.4 L 619.15119 0 L 622.8231900000001 0 L 622.8231900000001 -50.4 z" stroke-linecap="round" />
</g>
		<g transform="matrix(1.25 0 0 1.25 201.01 0)" id="path530239"  >
<path style="stroke: rgb(255,255,255); stroke-width: 0; stroke-dasharray: none; stroke-linecap: butt; stroke-dashoffset: 0; stroke-linejoin: miter; stroke-miterlimit: 2; fill: rgb(255,255,255); fill-rule: nonzero; opacity: 1;" vector-effect="non-scaling-stroke"  transform=" translate(-654.68, 25.2)" d="M 671.99356 0 L 676.31356 0 L 656.94556 -26.064 L 674.94556 -50.4 L 670.84156 -50.4 L 654.7855599999999 -28.727999999999998 L 638.7295599999999 -50.4 L 634.4095599999998 -50.4 L 652.4095599999998 -25.991999999999997 L 633.04156 0 L 637.36156 0 L 654.64156 -23.328 z" stroke-linecap="round" />
</g>
		<g transform="matrix(1 0 0 1 0 0)" id="icon"  >
</g>
</g>
</g>
</svg>