<svg xmlns="http://www.w3.org/2000/svg" xmlns:xlink="http://www.w3.org/1999/xlink" version="1.1" width="80" height="50" viewBox="0 0 80 50" xml:space="preserve">
<desc>Created with Fabric.js 3.5.0</desc>
<defs>
</defs>
<rect x="0" y="0" width="100%" height="100%" fill="rgba(0,0,0,0)"/>
<g transform="matrix(1 0 0 1 39.9834 25)" style="" id="793711">
		
<path xml:space="preserve" font-family="Arimo" font-size="16" font-style="normal" font-weight="bold" style="stroke: none; stroke-width: 1; stroke-dasharray: none; stroke-linecap: butt; stroke-dashoffset: 0; stroke-linejoin: miter; stroke-miterlimit: 4; is-custom-font: none; font-file-url: none; fill: rgb(255,255,255); fill-rule: nonzero; opacity: 1; white-space: pre;" d="M-28.57-4.20L-32.13-4.20L-32.13 5.03L-34.44 5.03L-34.44-4.20L-37.99-4.20L-37.99-5.98L-28.57-5.98L-28.57-4.20Z"/><path xml:space="preserve" font-family="Arimo" font-size="16" font-style="normal" font-weight="bold" style="stroke: none; stroke-width: 1; stroke-dasharray: none; stroke-linecap: butt; stroke-dashoffset: 0; stroke-linejoin: miter; stroke-miterlimit: 4; is-custom-font: none; font-file-url: none; fill: rgb(255,255,255); fill-rule: nonzero; opacity: 1; white-space: pre;" d="M-22.08 0.85L-24.78 0.85L-24.78 5.03L-27.09 5.03L-27.09-5.98L-21.59-5.98Q-19.62-5.98-18.55-5.13Q-17.48-4.29-17.48-2.70L-17.48-2.70Q-17.48-1.54-18.14-0.70Q-18.79 0.14-19.91 0.40L-19.91 0.40L-16.93 5.03L-19.53 5.03L-22.08 0.85ZM-19.80-2.61L-19.80-2.61Q-19.80-3.40-20.31-3.79Q-20.81-4.19-21.83-4.19L-21.83-4.19L-24.78-4.19L-24.78-0.94L-21.77-0.94Q-20.80-0.94-20.30-1.38Q-19.80-1.82-19.80-2.61Z"/><path xml:space="preserve" font-family="Arimo" font-size="16" font-style="normal" font-weight="bold" style="stroke: none; stroke-width: 1; stroke-dasharray: none; stroke-linecap: butt; stroke-dashoffset: 0; stroke-linejoin: miter; stroke-miterlimit: 4; is-custom-font: none; font-file-url: none; fill: rgb(255,255,255); fill-rule: nonzero; opacity: 1; white-space: pre;" d="M-15.29-5.98L-12.99-5.98L-12.99 5.03L-15.29 5.03L-15.29-5.98Z"/><path xml:space="preserve" font-family="Arimo" font-size="16" font-style="normal" font-weight="bold" style="stroke: none; stroke-width: 1; stroke-dasharray: none; stroke-linecap: butt; stroke-dashoffset: 0; stroke-linejoin: miter; stroke-miterlimit: 4; is-custom-font: none; font-file-url: none; fill: rgb(255,255,255); fill-rule: nonzero; opacity: 1; white-space: pre;" d="M-5.47 3.37L-5.47 3.37Q-3.37 3.37-2.57 1.28L-2.57 1.28L-0.56 2.03Q-1.21 3.63-2.46 4.41Q-3.72 5.18-5.47 5.18L-5.47 5.18Q-7.23 5.18-8.48 4.51Q-9.72 3.83-10.37 2.55Q-11.02 1.27-11.02-0.53L-11.02-0.53Q-11.02-2.34-10.40-3.59Q-9.77-4.84-8.55-5.49Q-7.33-6.15-5.57-6.15L-5.57-6.15Q-3.63-6.15-2.41-5.37Q-1.19-4.59-0.70-3.08L-0.70-3.08L-2.73-2.53Q-2.99-3.36-3.75-3.84Q-4.50-4.33-5.52-4.33L-5.52-4.33Q-7.08-4.33-7.89-3.36Q-8.70-2.40-8.70-0.53L-8.70-0.53Q-8.70 0.74-8.33 1.60Q-7.96 2.47-7.24 2.92Q-6.51 3.37-5.47 3.37Z"/><path xml:space="preserve" font-family="Arimo" font-size="16" font-style="normal" font-weight="bold" style="stroke: none; stroke-width: 1; stroke-dasharray: none; stroke-linecap: butt; stroke-dashoffset: 0; stroke-linejoin: miter; stroke-miterlimit: 4; is-custom-font: none; font-file-url: none; fill: rgb(255,255,255); fill-rule: nonzero; opacity: 1; white-space: pre;" d="M11.89-0.53L11.89-0.53Q11.89 1.19 11.20 2.48Q10.51 3.76 9.25 4.47Q8.00 5.18 6.31 5.18L6.31 5.18Q4.58 5.18 3.34 4.49Q2.10 3.80 1.44 2.52Q0.77 1.24 0.77-0.53L0.77-0.53Q0.77-2.29 1.43-3.55Q2.09-4.81 3.34-5.48Q4.58-6.15 6.33-6.15L6.33-6.15Q8.08-6.15 9.32-5.47Q10.56-4.79 11.23-3.54Q11.89-2.28 11.89-0.53ZM9.54-0.53L9.54-0.53Q9.54-2.31 8.69-3.32Q7.85-4.33 6.33-4.33L6.33-4.33Q4.78-4.33 3.94-3.33Q3.09-2.33 3.09-0.53L3.09-0.53Q3.09 0.67 3.48 1.55Q3.87 2.42 4.60 2.90Q5.32 3.37 6.31 3.37L6.31 3.37Q7.86 3.37 8.70 2.35Q9.54 1.34 9.54-0.53Z"/><path xml:space="preserve" font-family="Arimo" font-size="16" font-style="normal" font-weight="bold" style="stroke: none; stroke-width: 1; stroke-dasharray: none; stroke-linecap: butt; stroke-dashoffset: 0; stroke-linejoin: miter; stroke-miterlimit: 4; is-custom-font: none; font-file-url: none; fill: rgb(255,255,255); fill-rule: nonzero; opacity: 1; white-space: pre;" d="M22.40-4.20L18.84-4.20L18.84 5.03L16.54 5.03L16.54-4.20L12.98-4.20L12.98-5.98L22.40-5.98L22.40-4.20Z"/><path xml:space="preserve" font-family="Arimo" font-size="16" font-style="normal" font-weight="bold" style="stroke: none; stroke-width: 1; stroke-dasharray: none; stroke-linecap: butt; stroke-dashoffset: 0; stroke-linejoin: miter; stroke-miterlimit: 4; is-custom-font: none; font-file-url: none; fill: rgb(255,255,255); fill-rule: nonzero; opacity: 1; white-space: pre;" d="M23.89-5.98L26.19-5.98L26.19 5.03L23.89 5.03L23.89-5.98Z"/><path xml:space="preserve" font-family="Arimo" font-size="16" font-style="normal" font-weight="bold" style="stroke: none; stroke-width: 1; stroke-dasharray: none; stroke-linecap: butt; stroke-dashoffset: 0; stroke-linejoin: miter; stroke-miterlimit: 4; is-custom-font: none; font-file-url: none; fill: rgb(255,255,255); fill-rule: nonzero; opacity: 1; white-space: pre;" d="M35.61 5.03L32.84 0.64L30.08 5.03L27.64 5.03L31.45-0.76L27.96-5.98L30.40-5.98L32.84-2.09L35.29-5.98L37.71-5.98L34.37-0.76L38.03 5.03L35.61 5.03Z"/></g>
</svg>